<svg width="60" height="60" viewBox="0 0 60 60" fill="none" xmlns="http://www.w3.org/2000/svg">
<g id="logo" clip-path="url(#clip0_2_423)">
<path id="&#60;Compound Path&#62;" fill-rule="evenodd" clip-rule="evenodd" d="M27.5464 1.18843C30.4624 -0.298476 34.0621 -0.380001 36.9453 1.24278C38.9435 2.40359 40.638 4.18224 41.6132 6.35874C43.4925 10.1911 43.5089 14.8708 41.9401 18.822C41.6844 19.31 41.8061 19.8667 41.8937 20.3848C42.3504 23.2769 42.676 26.1907 43.1273 29.0843C45.7142 29.1565 48.2627 29.7574 50.6292 30.8531C53.9883 32.5117 56.8851 35.3367 58.3991 38.9173C60.0718 42.6252 60.37 46.9642 59.3223 50.9055C58.5766 53.4685 57.1997 55.8985 55.1153 57.5084C51.1763 60.8056 44.9299 60.8457 41.1674 57.2165C38.6016 54.7736 37.4308 51.2031 36.8646 47.7141C36.4119 45.4559 36.1178 43.1662 35.7048 40.9007C31.8219 40.8363 27.9362 40.8978 24.0519 40.8807C23.2901 44.4169 22.8046 48.0304 21.7008 51.475C21.0006 53.6917 19.7997 55.7497 18.1462 57.3267C14.2646 60.8729 7.90753 60.8114 4.03008 57.2838C0.595764 54.1614 -0.550322 48.9679 0.375564 44.4215C1.18796 39.6489 4.49233 35.4644 8.77736 33.6512C11.2392 32.4821 13.9418 32.0398 16.6088 31.7319C16.7867 31.6317 16.7525 31.3713 16.8195 31.1981C17.4158 28.1667 18.0326 25.1317 18.4388 22.0681C15.795 25.2408 12.8135 28.1115 9.64179 30.7018C13.7135 26.633 16.74 21.5184 18.7628 16.0387C20.1648 12.7229 20.8007 9.06224 22.6731 5.96825C23.7934 3.91175 25.5441 2.26906 27.5464 1.18843ZM26.1226 29.1289C28.7144 29.0787 31.3076 29.1088 33.9007 29.0988C32.7943 22.397 31.67 15.6997 30.3734 9.03498C28.7869 15.6896 27.5737 22.44 26.1226 29.1289ZM44.4034 38.3851C44.9272 41.6221 45.2034 44.9108 45.8887 48.1178C46.2511 49.9053 48.1222 51.2419 49.825 50.545C51.4716 49.9511 51.8424 47.8617 51.5072 46.276C51.0381 42.3849 47.8554 39.4598 44.4034 38.3851ZM8.43545 46.0256C8.00465 47.2406 7.82276 48.7833 8.64973 49.8695C9.77405 51.2133 12.0431 50.9213 13.01 49.5117C13.7129 48.4828 13.9715 47.2106 14.1739 45.9856C14.416 44.2277 14.8154 42.4968 15.0014 40.732C12.5485 42.0515 9.92353 43.484 8.43545 46.0256Z" fill="#FFFBF5"/>
</g>
<defs>
<clipPath id="clip0_2_423">
<rect width="60" height="60" fill="white"/>
</clipPath>
</defs>
</svg>
